<svg width="24" height="24" viewBox="0 0 24 24" fill="none" xmlns="http://www.w3.org/2000/svg">
<path d="M18 7.16C17.94 7.15 17.87 7.15 17.81 7.16C16.43 7.11 15.33 5.98 15.33 4.58C15.33 3.15 16.48 2 17.91 2C19.34 2 20.49 3.16 20.49 4.58C20.48 5.98 19.38 7.11 18 7.16Z" stroke="url(#paint0_linear_2300_10733)" stroke-width="1.5" stroke-linecap="round" stroke-linejoin="round"/>
<path d="M16.9699 14.4402C18.3399 14.6702 19.8499 14.4302 20.9099 13.7202C22.3199 12.7802 22.3199 11.2402 20.9099 10.3002C19.8399 9.59016 18.3099 9.35016 16.9399 9.59016" stroke="url(#paint1_linear_2300_10733)" stroke-width="1.5" stroke-linecap="round" stroke-linejoin="round"/>
<path d="M5.96998 7.16C6.02998 7.15 6.09998 7.15 6.15998 7.16C7.53998 7.11 8.63998 5.98 8.63998 4.58C8.63998 3.15 7.48998 2 6.05998 2C4.62998 2 3.47998 3.16 3.47998 4.58C3.48998 5.98 4.58998 7.11 5.96998 7.16Z" stroke="url(#paint2_linear_2300_10733)" stroke-width="1.5" stroke-linecap="round" stroke-linejoin="round"/>
<path d="M6.99994 14.4402C5.62994 14.6702 4.11994 14.4302 3.05994 13.7202C1.64994 12.7802 1.64994 11.2402 3.05994 10.3002C4.12994 9.59016 5.65994 9.35016 7.02994 9.59016" stroke="url(#paint3_linear_2300_10733)" stroke-width="1.5" stroke-linecap="round" stroke-linejoin="round"/>
<path d="M12 14.6297C11.94 14.6197 11.87 14.6197 11.81 14.6297C10.43 14.5797 9.32996 13.4497 9.32996 12.0497C9.32996 10.6197 10.48 9.46973 11.91 9.46973C13.34 9.46973 14.49 10.6297 14.49 12.0497C14.48 13.4497 13.38 14.5897 12 14.6297Z" stroke="url(#paint4_linear_2300_10733)" stroke-width="1.5" stroke-linecap="round" stroke-linejoin="round"/>
<path d="M9.08997 17.7794C7.67997 18.7194 7.67997 20.2594 9.08997 21.1994C10.69 22.2694 13.31 22.2694 14.91 21.1994C16.32 20.2594 16.32 18.7194 14.91 17.7794C13.32 16.7194 10.69 16.7194 9.08997 17.7794Z" stroke="url(#paint5_linear_2300_10733)" stroke-width="1.5" stroke-linecap="round" stroke-linejoin="round"/>
<defs>
<linearGradient id="paint0_linear_2300_10733" x1="14.9696" y1="2.00002" x2="20.489" y2="7.16196" gradientUnits="userSpaceOnUse">
<stop stop-color="#0078BE"/>
<stop offset="1" stop-color="#07302D"/>
</linearGradient>
<linearGradient id="paint1_linear_2300_10733" x1="16.5889" y1="9.50002" x2="21.9636" y2="14.5296" gradientUnits="userSpaceOnUse">
<stop stop-color="#0078BE"/>
<stop offset="1" stop-color="#07302D"/>
</linearGradient>
<linearGradient id="paint2_linear_2300_10733" x1="3.11966" y1="2.00002" x2="8.63901" y2="7.16196" gradientUnits="userSpaceOnUse">
<stop stop-color="#0078BE"/>
<stop offset="1" stop-color="#07302D"/>
</linearGradient>
<linearGradient id="paint3_linear_2300_10733" x1="1.65137" y1="9.50002" x2="7.02608" y2="14.5296" gradientUnits="userSpaceOnUse">
<stop stop-color="#0078BE"/>
<stop offset="1" stop-color="#07302D"/>
</linearGradient>
<linearGradient id="paint4_linear_2300_10733" x1="8.96963" y1="9.46974" x2="14.489" y2="14.6317" gradientUnits="userSpaceOnUse">
<stop stop-color="#0078BE"/>
<stop offset="1" stop-color="#07302D"/>
</linearGradient>
<linearGradient id="paint5_linear_2300_10733" x1="7.47837" y1="16.9844" x2="12.4701" y2="24.3674" gradientUnits="userSpaceOnUse">
<stop stop-color="#0078BE"/>
<stop offset="1" stop-color="#07302D"/>
</linearGradient>
</defs>
</svg>
