<svg width="24" height="24" viewBox="0 0 24 24" fill="none" xmlns="http://www.w3.org/2000/svg">
<path d="M3.17004 7.44043L12 12.5504L20.77 7.4704" stroke="url(#paint0_linear_2264_9949)" stroke-width="1.5" stroke-linecap="round" stroke-linejoin="round"/>
<path d="M12 21.61V12.54" stroke="url(#paint1_linear_2264_9949)" stroke-width="1.5" stroke-linecap="round" stroke-linejoin="round"/>
<path d="M9.92999 2.48L4.59 5.45003C3.38 6.12003 2.39001 7.80001 2.39001 9.18001V14.83C2.39001 16.21 3.38 17.89 4.59 18.56L9.92999 21.53C11.07 22.16 12.94 22.16 14.08 21.53L19.42 18.56C20.63 17.89 21.62 16.21 21.62 14.83V9.18001C21.62 7.80001 20.63 6.12003 19.42 5.45003L14.08 2.48C12.93 1.84 11.07 1.84 9.92999 2.48Z" stroke="url(#paint2_linear_2264_9949)" stroke-width="1.5" stroke-linecap="round" stroke-linejoin="round"/>
<path d="M17 13.2396V9.57965L7.51001 4.09961" stroke="url(#paint3_linear_2264_9949)" stroke-width="1.5" stroke-linecap="round" stroke-linejoin="round"/>
<defs>
<linearGradient id="paint0_linear_2264_9949" x1="1.94103" y1="7.44045" x2="5.04333" y2="17.4336" gradientUnits="userSpaceOnUse">
<stop stop-color="#0078BE"/>
<stop offset="1" stop-color="#07302D"/>
</linearGradient>
<linearGradient id="paint1_linear_2264_9949" x1="11.9302" y1="12.5401" x2="13.9143" y2="12.7447" gradientUnits="userSpaceOnUse">
<stop stop-color="#0078BE"/>
<stop offset="1" stop-color="#07302D"/>
</linearGradient>
<linearGradient id="paint2_linear_2264_9949" x1="1.04718" y1="2.00006" x2="22.37" y2="21.1719" gradientUnits="userSpaceOnUse">
<stop stop-color="#0078BE"/>
<stop offset="1" stop-color="#07302D"/>
</linearGradient>
<linearGradient id="paint3_linear_2264_9949" x1="6.84732" y1="4.09964" x2="16.6416" y2="13.6104" gradientUnits="userSpaceOnUse">
<stop stop-color="#0078BE"/>
<stop offset="1" stop-color="#07302D"/>
</linearGradient>
</defs>
</svg>
