<svg width="24" height="24" viewBox="0 0 24 24" fill="none" xmlns="http://www.w3.org/2000/svg">
<path d="M16.17 10.0603H7.82994C6.64995 10.0603 6.23995 9.27031 6.92995 8.31031L11.1 2.47031C11.59 1.77031 12.41 1.77031 12.89 2.47031L17.06 8.31031C17.76 9.27031 17.35 10.0603 16.17 10.0603Z" stroke="url(#paint0_linear_2300_10739)" stroke-width="1.5" stroke-linecap="round" stroke-linejoin="round"/>
<path d="M17.59 18.0005H6.41998C4.83998 18.0005 4.29998 16.9505 5.22998 15.6705L9.21997 10.0605H14.79L18.78 15.6705C19.71 16.9505 19.17 18.0005 17.59 18.0005Z" stroke="url(#paint1_linear_2300_10739)" stroke-width="1.5" stroke-linecap="round" stroke-linejoin="round"/>
<path d="M12 22V18" stroke="url(#paint2_linear_2300_10739)" stroke-width="1.5" stroke-linecap="round" stroke-linejoin="round"/>
<defs>
<linearGradient id="paint0_linear_2300_10739" x1="5.83962" y1="1.94534" x2="14.3335" y2="12.5256" gradientUnits="userSpaceOnUse">
<stop stop-color="#0078BE"/>
<stop offset="1" stop-color="#07302D"/>
</linearGradient>
<linearGradient id="paint1_linear_2300_10739" x1="3.76417" y1="10.0606" x2="11.1966" y2="22.7214" gradientUnits="userSpaceOnUse">
<stop stop-color="#0078BE"/>
<stop offset="1" stop-color="#07302D"/>
</linearGradient>
<linearGradient id="paint2_linear_2300_10739" x1="11.9302" y1="18" x2="13.8315" y2="18.4446" gradientUnits="userSpaceOnUse">
<stop stop-color="#0078BE"/>
<stop offset="1" stop-color="#07302D"/>
</linearGradient>
</defs>
</svg>
