<svg width="183" height="26" viewBox="0 0 183 26" fill="none" xmlns="http://www.w3.org/2000/svg">
<g clip-path="url(#clip0_2889_499)">
<path d="M48.9038 13.8304V15.767H45.8047V25.8166H43.4605V15.767H40.3416V13.8304H48.9038Z" fill="#494949"/>
<path d="M54.9431 20.1903C54.9431 19.5584 54.7245 19.0692 54.3074 18.7023C53.8703 18.3353 53.3538 18.1519 52.738 18.1519C52.1618 18.1519 51.6652 18.3149 51.2877 18.6819C50.8904 19.0488 50.6322 19.538 50.5527 20.1903H54.9431ZM57.3072 21.8007H50.5328C50.5925 22.4938 50.8309 23.0238 51.2282 23.4111C51.6453 23.7984 52.1618 24.0023 52.7578 24.0023C53.632 24.0023 54.2477 23.615 54.6252 22.8403H57.1482C56.8701 23.7577 56.3734 24.5119 55.5986 25.103C54.8438 25.6942 53.91 26 52.8174 26C51.9234 26 51.1089 25.7961 50.4136 25.3885C49.6984 24.9808 49.1422 24.41 48.7449 23.6557C48.3476 22.9219 48.1489 22.0454 48.1489 21.0873C48.1489 20.0884 48.3476 19.2322 48.7449 18.478C49.1223 17.7442 49.6786 17.1734 50.3739 16.7657C51.0891 16.358 51.9036 16.1746 52.8174 16.1746C53.6915 16.1746 54.4861 16.358 55.1815 16.7453C55.8768 17.1327 56.4132 17.7034 56.8105 18.4168C57.1879 19.1303 57.3866 19.9457 57.3866 20.8834C57.3866 21.2096 57.3667 21.5358 57.3072 21.8007Z" fill="#494949"/>
<path d="M64.0417 25.8166L62.1345 22.8608L60.4459 25.8166H57.923L60.9625 21.0465L57.9031 16.2969H60.5453L62.4325 19.2526L64.1411 16.2969H66.6441L63.6047 21.0465L66.6838 25.8166H64.0417Z" fill="#494949"/>
<path d="M84.5039 23.5742C84.8811 23.3704 85.1788 23.0442 85.3977 22.6161C85.6363 22.2084 85.7356 21.6784 85.7356 21.0873C85.7356 20.17 85.497 19.4768 85.0402 18.9876C84.5834 18.4984 84.0069 18.2538 83.3517 18.2538C82.676 18.2538 82.1199 18.4984 81.6631 18.9876C81.2056 19.4768 80.9874 20.17 80.9874 21.0873C80.9874 21.9842 81.2056 22.6772 81.6427 23.1665C82.0798 23.6557 82.6366 23.9003 83.3115 23.9003C83.7289 23.9003 84.1266 23.7984 84.5039 23.5742ZM80.9079 25.3885C80.1928 24.9808 79.6164 24.41 79.2194 23.6557C78.802 22.9219 78.6035 22.0454 78.6035 21.0873C78.6035 20.1088 78.8217 19.2527 79.2391 18.4984C79.6565 17.7645 80.2322 17.1734 80.948 16.7861C81.6828 16.3784 82.4775 16.1746 83.3714 16.1746C84.2653 16.1746 85.0796 16.3784 85.8151 16.7861C86.5302 17.1734 87.106 17.7645 87.5234 18.4984C87.9407 19.2527 88.1589 20.1088 88.1589 21.0873C88.1589 22.0454 87.9407 22.9219 87.5036 23.6557C87.0666 24.41 86.4901 24.9808 85.7553 25.3885C85.0402 25.7961 84.2054 26 83.3115 26C82.4177 26 81.623 25.7961 80.9079 25.3885Z" fill="#494949"/>
<path d="M105.423 23.5742C105.8 23.3704 106.098 23.0442 106.317 22.6161C106.535 22.2084 106.655 21.6784 106.655 21.0873C106.655 20.17 106.416 19.4768 105.959 18.9876C105.482 18.4984 104.926 18.2538 104.25 18.2538C103.595 18.2538 103.019 18.4984 102.582 18.9876C102.125 19.4768 101.887 20.17 101.887 21.0873C101.887 21.9842 102.125 22.6772 102.562 23.1665C102.999 23.6557 103.556 23.9003 104.23 23.9003C104.648 23.9003 105.045 23.7984 105.423 23.5742ZM101.807 25.3885C101.092 24.9808 100.535 24.41 100.138 23.6557C99.7209 22.9219 99.5225 22.0454 99.5225 21.0873C99.5225 20.1088 99.7209 19.2527 100.138 18.4984C100.556 17.7645 101.131 17.1734 101.866 16.7861C102.582 16.3784 103.396 16.1746 104.29 16.1746C105.184 16.1746 105.999 16.3784 106.714 16.7861C107.449 17.1734 108.005 17.7645 108.442 18.4984C108.86 19.2527 109.058 20.1088 109.058 21.0873C109.058 22.0454 108.839 22.9219 108.423 23.6557C107.986 24.41 107.409 24.9808 106.674 25.3885C105.939 25.7961 105.124 26 104.23 26C103.337 26 102.522 25.7961 101.807 25.3885Z" fill="#494949"/>
<path d="M152.326 23.3296C152.863 23.0034 153.279 22.5346 153.578 21.923C153.895 21.3319 154.035 20.6184 154.035 19.8234C154.035 19.0285 153.895 18.315 153.578 17.7238C153.279 17.1123 152.863 16.6638 152.326 16.3377C151.79 16.0115 151.174 15.8484 150.479 15.8484C149.764 15.8484 149.148 16.0115 148.612 16.3377C148.055 16.6638 147.638 17.1123 147.34 17.7238C147.042 18.315 146.883 19.0285 146.883 19.8234C146.883 20.6184 147.042 21.3319 147.34 21.923C147.638 22.5346 148.055 23.0034 148.612 23.3296C149.148 23.6557 149.764 23.8188 150.479 23.8188C151.174 23.8188 151.79 23.6557 152.326 23.3296ZM147.459 25.1846C146.545 24.6546 145.81 23.9207 145.274 22.9831C144.738 22.0658 144.479 21.0058 144.479 19.8234C144.479 18.6615 144.738 17.6015 145.274 16.6638C145.81 15.7261 146.545 15.0127 147.459 14.4826C148.373 13.9527 149.386 13.6876 150.479 13.6876C151.571 13.6876 152.585 13.9527 153.498 14.4826C154.412 15.0127 155.127 15.7261 155.644 16.6638C156.18 17.6015 156.438 18.6615 156.438 19.8234C156.438 21.0058 156.18 22.0658 155.644 22.9831C155.127 23.9207 154.392 24.6546 153.479 25.1846C152.564 25.7146 151.571 25.9796 150.479 25.9796C149.386 25.9796 148.373 25.7146 147.459 25.1846Z" fill="#494949"/>
<path d="M172.053 16.6639C172.57 15.7262 173.265 15.0128 174.179 14.4827C175.073 13.9731 176.086 13.7081 177.198 13.7081C178.49 13.7081 179.642 14.0547 180.615 14.7273C181.609 15.4204 182.284 16.3785 182.681 17.5812H179.98C179.722 17.0104 179.344 16.5824 178.867 16.2969C178.37 16.0116 177.814 15.8689 177.179 15.8689C176.503 15.8689 175.887 16.032 175.351 16.3581C174.834 16.6843 174.417 17.1531 174.119 17.7443C173.821 18.3354 173.682 19.0285 173.682 19.8439C173.682 20.6185 173.821 21.332 174.119 21.9231C174.417 22.5346 174.834 22.9831 175.351 23.3093C175.887 23.6354 176.503 23.7985 177.179 23.7985C177.814 23.7985 178.37 23.6558 178.867 23.3705C179.344 23.085 179.722 22.6366 179.98 22.0658H182.681C182.284 23.2889 181.609 24.2469 180.635 24.9401C179.662 25.6127 178.51 25.9593 177.198 25.9593C176.086 25.9593 175.073 25.6943 174.179 25.1643C173.265 24.6546 172.57 23.9208 172.053 23.0035C171.537 22.0658 171.259 21.0262 171.259 19.8439C171.259 18.6616 171.537 17.6016 172.053 16.6639Z" fill="#494949"/>
<path d="M74.6302 16.3174H76.9747V25.8166H74.6302V22.0455H70.4585V25.8166H68.134V16.3174H70.4585V20.0885H74.6302V16.3174Z" fill="#494949"/>
<path d="M117.064 16.3174V18.2947H112.853V25.8166H110.528V16.3174H117.064Z" fill="#494949"/>
<path d="M125.546 16.3174H127.514V25.8166H125.13V19.7624L120.6 25.8166H118.673V16.3174H121.017V22.3308L125.546 16.3174Z" fill="#494949"/>
<path d="M135.917 16.3174H137.884V25.8166H135.5V19.7624L130.97 25.8166H129.043V16.3174H131.388V22.3308L135.917 16.3174Z" fill="#494949"/>
<path d="M98.052 16.3174V25.8166H95.6885V18.2947H92.9463V21.8212C92.9463 24.8585 91.2578 26.0612 88.8943 25.8166V23.9004C90.0261 24.1043 90.6025 23.4724 90.6025 21.7397V16.3174H98.052Z" fill="#494949"/>
<path d="M166.788 21.6377C166.312 22.1066 165.735 22.3512 165.06 22.3512V17.2958C165.735 17.2958 166.312 17.52 166.788 18.0093C167.265 18.4985 167.484 19.0896 167.484 19.8235C167.484 20.537 167.265 21.1485 166.788 21.6377ZM162.656 22.3512C161.981 22.3512 161.405 22.1066 160.928 21.6377C160.451 21.1485 160.233 20.537 160.233 19.8235C160.233 19.0896 160.451 18.4985 160.928 18.0093C161.405 17.52 161.981 17.2958 162.656 17.2958V22.3512ZM168.418 16.3785C167.503 15.4408 166.391 14.9719 165.06 14.9719V13.7081H162.656V14.9719C161.325 14.9719 160.213 15.4408 159.299 16.3785C158.385 17.3162 157.928 18.4578 157.928 19.8235C157.928 21.1893 158.385 22.3308 159.299 23.2685C160.213 24.2062 161.325 24.6751 162.656 24.6751V25.9593H165.06V24.6751C166.391 24.6751 167.503 24.2062 168.418 23.2685C169.331 22.3308 169.788 21.1893 169.788 19.8235C169.788 18.4578 169.331 17.3162 168.418 16.3785Z" fill="#494949"/>
<path d="M27.2503 13.8304L2.63628 13.8508C0.868215 13.8508 -0.383342 15.5835 0.113307 17.3163L2.00058 23.8189C2.3383 24.9605 3.37132 25.7351 4.52356 25.7351L29.1573 25.7147C30.9055 25.7147 32.1571 23.982 31.6605 22.2493L29.7732 15.767C29.4355 14.605 28.4223 13.8304 27.2503 13.8304Z" fill="#0078BE"/>
<path d="M26.5546 11.4453L5.95361 25.2865C4.48353 26.2854 2.49693 25.5311 2.00027 23.7984L0.11301 17.2958C-0.224711 16.1542 0.21234 14.9312 1.18577 14.2788L21.7868 0.437673C23.2568 -0.540789 25.2434 0.193058 25.7401 1.92575L27.6274 8.42848C27.9651 9.57002 27.5281 10.7931 26.5546 11.4453Z" fill="#03BE93"/>
</g>
<defs>
<clipPath id="clip0_2889_499">
<rect width="183" height="26" fill="white"/>
</clipPath>
</defs>
</svg>
